{"title":"W.C.FIELDS_Comedy.Collection_It's.A.Gift.1934.DVDRip.[4of5]-Agen","uid":10972446,"size":4463971580,"categoryP":"video","categoryS":"movies","magnet":"?xt=urn:btih:cb6e01d1c63b36dfa1c87582695b76dc0e63327a&amp;dn=W.C.FIELDS_Comedy.Collection_It%27s.A.Gift.1934.DVDRip.%5B4of5%5D-Agen&amp;tr=udp%3A%2F%2Ftracker.openbittorrent.com%3A80&amp;tr=udp%3A%2F%2Fopen.demonii.com%3A1337&amp;tr=udp%3A%2F%2Ftracker.coppersurfer.tk%3A6969&amp;tr=udp%3A%2F%2Fexodus.desync.com%3A6969","seeders":1,"leechers":0,"uploader":"Agent666","files":-1,"time":1409811519,"description":"W.C.FIELDS_Comedy.Collection_It's.A.Gift.1934.DVDRip.[4of5]-Agent666.mkv\n\nDVD (MKV) 4 OF 5\n\nâ– â– â– â– â– â– â– â– â– â– â– â– â– â– â– â– â– â– â– â– â– â– â– â– â– â– â– â– â– â– â– â–  I M D B :\n &lt;a href=&quot;\nhttp://www.imdb.com/title/tt0025318/&quot; rel=&quot;nofollow&quot; target=&quot;_NEW&quot;&gt;\nhttp://www.imdb.com/title/tt0025318/&lt;/a&gt;\n\nIt's A Gift (1934)\n68 min  -  Comedy\nRating:  7.3\nâ–  Cast:\nW.C. Fields (Harold Bissonette)\nKathleen Howard (Amelia Bissonette)\nJean Rouverol (Mildred Bissonette)\nâ–  Story Line:\nThe owner of a general store (Harold Bisonette) is hounded by his status-anxious wife (&quot;That's 'Bee-soh-nay'&quot; and &quot;I have no maid you know&quot;). To get some sleep he goes out on the porch where he is tormented by a little boy from the floor above (Baby Dunk) and an insurance salesman down below (&quot;LaFong. Capital L, small a...&quot;). He uses an inheritance to buy an orange ranch through the mail, then drives off with his family for California. The orange grove consists of a withered tree, the ranch house is but a shack, and the car falls to pieces. But a racetrack operator wants the land, so all ends happily.\n\nâ– â– â– â– â– â– â– â– â– â– â– â– â– â– â– â– â– â– â– â– â– â– â– â– â– â– â– â– â– â– â– â–  V I D E O :\n\nFormat                                   : Matroska\nFormat version                           : Version 4 / Version 2\nFile size                                : 4.16 GiB\nDuration                                 : 1h 8mn\nOverall bit rate mode                    : Variable\nOverall bit rate                         : 8 714 Kbps\nEncoded date                             : UTC 2014-09-03 21:56:26\nWriting application                      : mkvmerge v7.0.0 ('Where We Going') 64bit\nWriting library                          : libebml v1.3.0 + libmatroska v1.4.1\n\nâ–  VIDEO:\n\nID                                       : 1\nFormat                                   : MPEG Video\nFormat version                           : Version 2\nFormat profile                           : Main@Main\nFormat settings, BVOP                    : No\nFormat settings, Matrix                  : Custom\nCodec ID                                 : V_MPEG2\nCodec ID/Info                            : MPEG 1 or 2 Video\nDuration                                 : 1h 8mn\nBit rate mode                            : Variable\nBit rate                                 : 8 348 Kbps\nMaximum bit rate                         : 9 000 Kbps\nWidth                                    : 720 pixels\nHeight                                   : 480 pixels\nDisplay aspect ratio                     : 4:3\nFrame rate mode                          : Constant\nFrame rate                               : 29.970 fps\nStandard                                 : NTSC\nColor space                              : YUV\nChroma subsampling                       : 4:2:0\nBit depth                                : 8 bits\nScan type                                : Interlaced\nScan order                               : Top Field First\nCompression mode                         : Lossy\nBits/(Pixel*Frame)                       : 0.806\nStream size                              : 3.98 GiB (96%)\nDefault                                  : Yes\nForced                                   : No\n\nâ–  AUDIO:\n\nID                                       : 2\nFormat                                   : AC-3\nFormat/Info                              : Audio Coding 3\nMode extension                           : CM (complete main)\nFormat settings, Endianness              : Big\nCodec ID                                 : A_AC3\nDuration                                 : 1h 8mn\nBit rate mode                            : Constant\nBit rate                                 : 192 Kbps\nChannel(s)                               : 2 channels\nChannel positions                        : Front: L R\nSampling rate                            : 48.0 KHz\nBit depth                                : 16 bits\nCompression mode                         : Lossy\nStream size                              : 93.8 MiB (2%)\nDefault                                  : Yes\nForced                                   : No\n\nâ– â– â– â– â– â– â– â– â– â– â– â– â– â– â– â– â– â– â– â– â– â– â– â– â– â– â– â– â– â– â– â– â– â– â– â– â– â– â– â– â– â– â– â– â– â– â– â– â– â– â– â– â– â– â– â– â– â– â– â– â– â– â– â– â– â– â– â– â– â– â– â– \n\nâ–  SCREENS: &lt;a href=&quot;\nhttp://i.imgur.com/FjCVGeP.jpg&quot; rel=&quot;nofollow&quot; target=&quot;_NEW&quot;&gt;\nhttp://i.imgur.com/FjCVGeP.jpg&lt;/a&gt;\n &lt;a href=&quot;\nhttp://i.imgur.com/Ph51Gkm.jpg&quot; rel=&quot;nofollow&quot; target=&quot;_NEW&quot;&gt;\nhttp://i.imgur.com/Ph51Gkm.jpg&lt;/a&gt;\n &lt;a href=&quot;\nhttp://i.imgur.com/LXuIQSz.jpg&quot; rel=&quot;nofollow&quot; target=&quot;_NEW&quot;&gt;\nhttp://i.imgur.com/LXuIQSz.jpg&lt;/a&gt;\n &lt;a href=&quot;\nhttp://i.imgur.com/tRzPhFC.jpg&quot; rel=&quot;nofollow&quot; target=&quot;_NEW&quot;&gt;\nhttp://i.imgur.com/tRzPhFC.jpg&lt;/a&gt;\n &lt;a href=&quot;\nhttp://i.imgur.com/aq1Y9oN.jpg&quot; rel=&quot;nofollow&quot; target=&quot;_NEW&quot;&gt;\nhttp://i.imgur.com/aq1Y9oN.jpg&lt;/a&gt;\n &lt;a href=&quot;\nhttp://i.imgur.com/VElRHsX.jpg&quot; rel=&quot;nofollow&quot; target=&quot;_NEW&quot;&gt;\nhttp://i.imgur.com/VElRHsX.jpg&lt;/a&gt;\n &lt;a href=&quot;\nhttp://i.imgur.com/WOmU3zX.jpg&quot; rel=&quot;nofollow&quot; target=&quot;_NEW&quot;&gt;\nhttp://i.imgur.com/WOmU3zX.jpg&lt;/a&gt;\n &lt;a href=&quot;\nhttp://i.imgur.com/YTyyEcx.jpg&quot; rel=&quot;nofollow&quot; target=&quot;_NEW&quot;&gt;\nhttp://i.imgur.com/YTyyEcx.jpg&lt;/a&gt;\n\nâ–  THUMBNAILS: &lt;a href=&quot;\nhttp://i.imgur.com/775wyPC.jpg&quot; rel=&quot;nofollow&quot; target=&quot;_NEW&quot;&gt;\nhttp://i.imgur.com/775wyPC.jpg&lt;/a&gt;\n\nâ–  IMDB IMAGE: &lt;a href=&quot;\nhttp://i.imgur.com/q9GUgcj.jpg&quot; rel=&quot;nofollow&quot; target=&quot;_NEW&quot;&gt;\nhttp://i.imgur.com/q9GUgcj.jpg&lt;/a&gt;\n\nâ–  DVD BOX IMAGE &lt;a href=&quot;\nhttp://i.imgur.com/OuHzpe3.jpg&quot; rel=&quot;nofollow&quot; target=&quot;_NEW&quot;&gt;\nhttp://i.imgur.com/OuHzpe3.jpg&lt;/a&gt;\n\nâ–  DVD COLLECTION TITLES: &lt;a href=&quot;\nhttp://i.imgur.com/gD6NG5E.jpg&quot; rel=&quot;nofollow&quot; target=&quot;_NEW&quot;&gt;\nhttp://i.imgur.com/gD6NG5E.jpg&lt;/a&gt;\n\nâ–  MOVIE POSTER: &lt;a href=&quot;\nhttp://i.imgur.com/VsEYCeh.jpg&quot; rel=&quot;nofollow&quot; target=&quot;_NEW&quot;&gt;\nhttp://i.imgur.com/VsEYCeh.jpg&lt;/a&gt;\n\nâ–  WIKIPEDIA: &lt;a href=&quot;\nhttp://en.wikipedia.org/wiki/It%27s_a_Gift&quot; rel=&quot;nofollow&quot; target=&quot;_NEW&quot;&gt;\nhttp://en.wikipedia.org/wiki/It%27s_a_Gift&lt;/a&gt;\n\nâ–  IMDB: &lt;a href=&quot;\nhttp://www.imdb.com/title/tt0025318/&quot; rel=&quot;nofollow&quot; target=&quot;_NEW&quot;&gt;\nhttp://www.imdb.com/title/tt0025318/&lt;/a&gt;\n\nâ–  THIS IS DVD (MKV) 4 OF 5\n\nPLEASE CONTINUE TO SEED FOR AS LONG AS YOU CAN SO, THAT, OTHERS MAY ENJOY THIS TOO!\nThank you!\n","torrent":{"xt":"urn:btih:cb6e01d1c63b36dfa1c87582695b76dc0e63327a","amp;dn":"W.C.FIELDS_Comedy.Collection_It%27s.A.Gift.1934.DVDRip.%5B4of5%5D-Agen","amp;tr":["udp%3A%2F%2Ftracker.openbittorrent.com%3A80","udp%3A%2F%2Fopen.demonii.com%3A1337","udp%3A%2F%2Ftracker.coppersurfer.tk%3A6969","udp%3A%2F%2Fexodus.desync.com%3A6969"],"infoHash":"cb6e01d1c63b36dfa1c87582695b76dc0e63327a","infoHashBuffer":{"type":"Buffer","data":[203,110,1,209,198,59,54,223,161,200,117,130,105,91,118,220,14,99,50,122]},"announce":[],"urlList":[]}}